<svg width="9" height="12" viewBox="0 0 9 12" fill="none" xmlns="http://www.w3.org/2000/svg">
<g clip-path="url(#clip0_191_280)">
<path d="M8.97892 3.75V5.25C8.97892 5.66297 8.64213 6 8.25002 6H6.00002V11.25C6.00002 11.663 5.66299 12 5.27111 12H3.75002C3.33705 12 3.00002 11.663 3.00002 11.25V6H0.750019C0.336816 6 0 5.6625 0 5.25V3.75C0 3.33703 0.337031 3 0.75 3H3V0.75C3 0.337031 3.33703 0 3.75 0H5.25C5.66297 0 5.97891 0.337031 5.97891 0.75V3H8.22891C8.66252 3 8.97892 3.3375 8.97892 3.75Z" fill="#9B7B7B"/>
</g>
<defs>
<clipPath id="clip0_191_280">
<rect width="9" height="12" fill="white"/>
</clipPath>
</defs>
</svg>
