<svg width="24" height="24" viewBox="0 0 24 24" fill="none" xmlns="http://www.w3.org/2000/svg">
<path d="M20 11C20 6.09997 16.501 1.89997 11.68 1.01697L11.5 0.982971L11.32 1.01597C6.499 1.89997 3 6.09997 3 11C3 15.617 6.108 19.61 10.5 20.795V22C10.5 22.553 10.948 23 11.5 23C12.052 23 12.5 22.553 12.5 22V20.795C16.892 19.61 20 15.617 20 11ZM12.5 18.7V15.707L16.854 11.353C17.049 11.158 17.049 10.841 16.854 10.646C16.659 10.451 16.342 10.451 16.147 10.646L12.5 14.293V10.707L14.854 8.35297C15.049 8.15797 15.049 7.84097 14.854 7.64597C14.659 7.45097 14.342 7.45097 14.147 7.64597L12.5 9.29297V5.99997C12.5 5.44697 12.052 4.99997 11.5 4.99997C10.948 4.99997 10.5 5.44697 10.5 5.99997V9.29297L8.854 7.64597C8.659 7.45097 8.342 7.45097 8.147 7.64597C7.952 7.84097 7.952 8.15797 8.147 8.35297L10.501 10.707V14.293L6.855 10.647C6.66 10.452 6.343 10.452 6.148 10.647C5.953 10.842 5.953 11.159 6.148 11.354L10.502 15.708V18.7C7.253 17.584 5 14.521 5 11C5 7.12597 7.723 3.79897 11.5 3.01897C15.277 3.79897 18 7.12597 18 11C18 14.521 15.747 17.584 12.5 18.7Z" fill="#D8C8C0"/>
</svg>
