<svg width="165" height="84" viewBox="0 0 165 84" fill="none" xmlns="http://www.w3.org/2000/svg">
<path d="M15 49.5L16.0792 50.1308L16.0792 50.1308L15 49.5ZM44.9895 11.3765L44.2551 10.3651L44.9895 11.3765ZM64.2817 38.6112L63.2042 37.9776L64.2817 38.6112ZM50.2086 58.319L49.1006 57.7402C48.7998 58.316 48.9902 59.0263 49.5387 59.3744C50.0873 59.7225 50.811 59.5925 51.204 59.0751L50.2086 58.319ZM59.8587 39.4156L58.739 38.86L58.739 38.86L59.8587 39.4156ZM138.266 43.0354L138.237 44.2851L138.266 43.0354ZM112.848 44.8127L112.693 43.5723L112.848 44.8127ZM100.583 33.6219L101.546 32.8255L100.583 33.6219ZM101.742 35.6132L102.91 35.1688L101.742 35.6132ZM99.3419 32.121L100.305 31.3245L99.3419 32.121ZM94.5572 31.4324L93.8575 30.3966L93.8575 30.3966L94.5572 31.4324ZM80.2707 45.8246L79.492 44.8468L80.2707 45.8246ZM86.4126 39.7579L87.3586 40.5749L86.4126 39.7579ZM78.5208 33.7161L79.7089 34.1048L78.5208 33.7161ZM74.1365 14.0875L75.3704 14.2876L75.3704 14.2876L74.1365 14.0875ZM80.2103 23.236L81.446 23.0473L80.2103 23.236ZM25.1665 33.6481L24.1196 32.9651L25.1665 33.6481ZM27.9475 29.5517L28.9643 30.2787L27.9475 29.5517ZM30.4627 26.1854L31.4481 26.9545L30.4627 26.1854ZM91.4054 33.9764L90.4594 33.1594L91.4054 33.9764ZM93.3561 32.2438L94.0558 33.2796L93.3561 32.2438ZM12.3718 63.4553L12.3274 64.0545L14.8206 64.2391L14.865 63.64L12.3718 63.4553ZM4.54545 80.1643C3.90147 80.5393 3.44243 80.7208 3.13792 80.7891C2.83252 80.8576 2.80971 80.7866 2.89741 80.8363C3.0011 80.8952 2.96961 80.9547 2.92219 80.7742C2.87116 80.5801 2.84246 80.2439 2.88804 79.728C3.07517 77.6095 4.34151 74.0005 6.12789 69.8627C9.65707 61.6879 14.8889 52.1671 16.0792 50.1308L13.9208 48.8692C12.6987 50.96 7.41465 60.5746 3.83265 68.8718C2.06344 72.9699 0.625358 76.9311 0.397736 79.508C0.339623 80.1659 0.350346 80.8239 0.504307 81.4097C0.661889 82.0093 1.00098 82.6346 1.6633 83.0105C2.30964 83.3774 3.03351 83.3747 3.68535 83.2284C4.33807 83.0819 5.04679 82.7654 5.80357 82.3246L4.54545 80.1643ZM16.0792 50.1308C17.3394 47.9749 22.6354 39.8159 26.2135 34.331L24.1196 32.9651C20.5661 38.4123 15.2211 46.6447 13.9208 48.8692L16.0792 50.1308ZM33.2914 24.6512C36.593 20.7739 41.4315 15.5049 45.724 12.388L44.2551 10.3651C39.7013 13.6717 34.6982 19.1429 31.388 23.0304L33.2914 24.6512ZM45.724 12.388C51.042 8.52637 55.7205 5.80373 60.2275 4.41195L59.4899 2.02325C54.5953 3.53472 49.6556 6.44353 44.2551 10.3651L45.724 12.388ZM70.3768 4.44126C70.6567 4.6372 70.92 4.82897 71.1602 5.01343L72.6828 3.03057C72.4077 2.81932 72.1139 2.60561 71.8104 2.39317L70.3768 4.44126ZM73.084 10.5553V11.6374H75.584V10.5553H73.084ZM72.9027 13.8873L72.1213 18.7032L74.5891 19.1036L75.3704 14.2876L72.9027 13.8873ZM66.1558 32.8795C65.2804 34.4149 64.2861 36.1379 63.2042 37.9776L65.3592 39.2449C66.4474 37.3944 67.4474 35.6616 68.3276 34.1177L66.1558 32.8795ZM63.2042 37.9776C61.7054 40.5262 58.2286 45.3988 55.0841 49.6865C53.5205 51.8187 52.0524 53.7883 50.975 55.225C50.4364 55.9433 49.9957 56.5282 49.6897 56.9333C49.5367 57.1359 49.4174 57.2935 49.3365 57.4003C49.296 57.4538 49.2651 57.4945 49.2443 57.5219C49.234 57.5355 49.2261 57.5459 49.2209 57.5527C49.2183 57.5562 49.2163 57.5588 49.2151 57.5605C49.2144 57.5613 49.2139 57.5619 49.2136 57.5624C49.2134 57.5626 49.2133 57.5627 49.2133 57.5628C49.2132 57.5629 49.2132 57.5629 50.2086 58.319C51.204 59.0751 51.204 59.0751 51.2041 59.0749C51.2042 59.0748 51.2043 59.0746 51.2045 59.0744C51.2049 59.0739 51.2054 59.0732 51.2061 59.0723C51.2075 59.0705 51.2095 59.0679 51.2122 59.0643C51.2176 59.0572 51.2255 59.0467 51.2361 59.0328C51.2571 59.005 51.2884 58.9638 51.3292 58.91C51.4109 58.8022 51.5309 58.6436 51.6846 58.44C51.9921 58.0329 52.4346 57.4457 52.9752 56.7248C54.0561 55.2833 55.5298 53.3063 57.1001 51.165C60.2236 46.9059 63.7833 41.9246 65.3592 39.2449L63.2042 37.9776ZM50.2086 58.319C51.3165 58.8978 51.3165 58.8978 51.3166 58.8977C51.3166 58.8976 51.3167 58.8975 51.3167 58.8973C51.3169 58.897 51.3172 58.8965 51.3175 58.8959C51.3182 58.8946 51.3192 58.8927 51.3205 58.8902C51.3231 58.8852 51.327 58.8777 51.3322 58.8678C51.3425 58.848 51.3579 58.8184 51.3782 58.7796C51.4187 58.702 51.4786 58.5871 51.5563 58.4379C51.7118 58.1394 51.9387 57.7035 52.2242 57.1536C52.7952 56.0537 53.6012 54.4976 54.5409 52.6719C56.4198 49.0213 58.8355 44.2892 60.9784 39.9713L58.739 38.86C56.604 43.162 54.1947 47.8816 52.318 51.5278C51.3799 53.3504 50.5754 54.9039 50.0054 56.0016C49.7205 56.5504 49.4942 56.9853 49.3392 57.2828C49.2617 57.4316 49.202 57.5461 49.1617 57.6233C49.1416 57.6619 49.1263 57.6912 49.116 57.7108C49.1109 57.7206 49.107 57.728 49.1045 57.7329C49.1032 57.7354 49.1022 57.7372 49.1016 57.7384C49.1013 57.739 49.101 57.7395 49.1009 57.7398C49.1008 57.74 49.1007 57.7401 49.1007 57.7401C49.1007 57.7402 49.1006 57.7402 50.2086 58.319ZM60.9784 39.9713C62.6849 36.5326 66.1687 29.9899 69.3428 25.2275L67.2625 23.841C64.0032 28.7313 60.4653 35.3815 58.739 38.86L60.9784 39.9713ZM69.3428 25.2275C70.9094 22.877 72.112 21.5477 72.8885 20.8223C73.2762 20.4602 73.5558 20.2502 73.7197 20.139C73.8017 20.0834 73.8546 20.0526 73.8777 20.0397C73.8893 20.0333 73.8934 20.0314 73.8899 20.0331C73.8882 20.034 73.8846 20.0357 73.8791 20.0383C73.8763 20.0396 73.8731 20.0411 73.8694 20.0427C73.8675 20.0436 73.8656 20.0445 73.8635 20.0454C73.8624 20.0459 73.8614 20.0463 73.8603 20.0468C73.8597 20.0471 73.8589 20.0474 73.8586 20.0476C73.8577 20.0479 73.8569 20.0483 73.3552 18.9034C72.8535 17.7585 72.8526 17.7589 72.8518 17.7593C72.8514 17.7594 72.8506 17.7598 72.8499 17.7601C72.8487 17.7606 72.8475 17.7612 72.8462 17.7617C72.8437 17.7629 72.841 17.764 72.8383 17.7653C72.8328 17.7678 72.8269 17.7705 72.8206 17.7734C72.8079 17.7794 72.7936 17.7862 72.7776 17.7942C72.7457 17.81 72.7073 17.8301 72.6623 17.8551C72.5725 17.9051 72.4569 17.9748 72.3164 18.07C72.0356 18.2605 71.6553 18.5532 71.1819 18.9955C70.2363 19.8789 68.9127 21.3651 67.2625 23.841L69.3428 25.2275ZM73.3552 18.9034C74.2078 19.8175 74.2074 19.8179 74.207 19.8183C74.2068 19.8184 74.2064 19.8188 74.2062 19.819C74.2057 19.8195 74.2052 19.8199 74.2048 19.8203C74.2039 19.8211 74.2032 19.8217 74.2027 19.8223C74.2015 19.8233 74.201 19.8238 74.201 19.8238C74.201 19.8238 74.2033 19.8217 74.2077 19.8179C74.2165 19.8101 74.2339 19.7952 74.259 19.7748C74.3097 19.7337 74.39 19.6717 74.4949 19.6012C74.7093 19.457 75.0003 19.2943 75.3292 19.1897C75.6546 19.0862 75.9877 19.0483 76.3174 19.1124C76.635 19.1741 77.0292 19.3454 77.4709 19.7872L79.2389 18.0197C78.4743 17.2548 77.6404 16.8228 76.7945 16.6583C75.9605 16.4962 75.1944 16.6091 74.5715 16.8073C73.9521 17.0043 73.4455 17.2941 73.0994 17.5269C72.924 17.6449 72.7834 17.7526 72.6831 17.8341C72.6328 17.8749 72.5922 17.9095 72.562 17.9359C72.5469 17.9492 72.5343 17.9604 72.5244 17.9693C72.5194 17.9738 72.5151 17.9778 72.5115 17.9811C72.5097 17.9828 72.508 17.9843 72.5065 17.9857C72.5058 17.9863 72.5051 17.987 72.5044 17.9876C72.5041 17.9879 72.5036 17.9883 72.5035 17.9885C72.503 17.9889 72.5026 17.9893 73.3552 18.9034ZM77.4709 19.7872C78.2919 20.6084 78.7544 21.9829 78.9746 23.4248L81.446 23.0473C81.2025 21.453 80.6365 19.4177 79.2389 18.0197L77.4709 19.7872ZM77.3328 33.3274C76.5865 35.6085 75.377 39.3384 75.1318 40.319L77.5571 40.9254C77.7743 40.0569 78.9415 36.4502 79.7089 34.1048L77.3328 33.3274ZM75.1318 40.319C74.9805 40.9243 74.4511 42.7408 74.0879 44.4484C73.9038 45.314 73.7464 46.2188 73.6919 47.0081C73.6648 47.4022 73.6606 47.8026 73.7032 48.1734C73.7432 48.5219 73.8373 48.9683 74.098 49.3595L76.1783 47.973C76.238 48.0625 76.2083 48.0744 76.1868 47.888C76.168 47.7239 76.1647 47.489 76.186 47.1801C76.2285 46.5632 76.3583 45.7908 76.5332 44.9685C76.8881 43.3002 77.364 41.6979 77.5571 40.9254L75.1318 40.319ZM74.098 49.3595C74.411 49.829 74.8848 50.0106 75.2713 50.0496C75.6201 50.0848 75.9437 50.0146 76.1822 49.9428C76.6681 49.7964 77.2003 49.5164 77.7021 49.2135C78.7304 48.5927 79.9543 47.6745 81.0494 46.8024L79.492 44.8468C78.4152 45.7044 77.2944 46.5394 76.4101 47.0732C75.9557 47.3475 75.6397 47.4952 75.461 47.549C75.3673 47.5773 75.4046 47.5504 75.5224 47.5622C75.678 47.578 75.9762 47.6696 76.1783 47.973L74.098 49.3595ZM87.3586 40.5749L92.3515 34.7935L90.4594 33.1594L85.4665 38.9409L87.3586 40.5749ZM94.0558 33.2796L95.2569 32.4683L93.8575 30.3966L92.6564 31.2079L94.0558 33.2796ZM98.3785 32.9175L99.6194 34.4184L101.546 32.8255L100.305 31.3245L98.3785 32.9175ZM100.574 36.0576L101.714 39.0556L104.051 38.1668L102.91 35.1688L100.574 36.0576ZM113.003 46.053C120.018 45.1759 130.463 44.1001 138.237 44.2851L138.296 41.7858C130.32 41.596 119.715 42.6944 112.693 43.5723L113.003 46.053ZM138.237 44.2851C143.22 44.4037 149.6 45.1001 154.762 45.7728C157.336 46.1084 159.597 46.4365 161.214 46.6807C162.022 46.8028 162.669 46.9039 163.113 46.9743C163.335 47.0095 163.507 47.0371 163.622 47.0558C163.68 47.0652 163.724 47.0723 163.753 47.0771C163.768 47.0795 163.779 47.0813 163.786 47.0825C163.79 47.0831 163.793 47.0835 163.794 47.0838C163.795 47.0839 163.796 47.0841 163.796 47.0841C163.796 47.0842 163.797 47.0842 163.797 47.0842C163.797 47.0842 163.797 47.0842 164 45.8508C164.203 44.6175 164.203 44.6174 164.203 44.6174C164.203 44.6174 164.203 44.6174 164.202 44.6173C164.202 44.6172 164.201 44.6171 164.2 44.6169C164.198 44.6166 164.195 44.6161 164.191 44.6155C164.183 44.6142 164.172 44.6123 164.156 44.6098C164.126 44.6048 164.081 44.5975 164.022 44.5879C163.903 44.5688 163.729 44.5408 163.504 44.5051C163.055 44.4338 162.402 44.3318 161.587 44.2088C159.958 43.9626 157.68 43.632 155.085 43.2938C149.907 42.619 143.419 41.9077 138.296 41.7858L138.237 44.2851ZM101.696 39.0064C103.283 43.7678 108.057 46.6713 113.003 46.053L112.693 43.5723C108.895 44.0471 105.267 41.814 104.068 38.216L101.696 39.0064ZM99.6194 34.4184C100.025 34.909 100.347 35.4627 100.574 36.0576L102.91 35.1688C102.587 34.3184 102.126 33.5267 101.546 32.8255L99.6194 34.4184ZM96.2384 32.0898C97.0472 31.9743 97.8579 32.2878 98.3785 32.9175L100.305 31.3245C99.23 30.0238 97.5554 29.3762 95.8847 29.615L96.2384 32.0898ZM12.3274 64.0545C11.8412 70.6208 9.75602 77.1298 4.54545 80.1643L5.80357 82.3246C12.1382 78.6356 14.3202 70.9966 14.8206 64.2391L12.3274 64.0545ZM95.2569 32.4683C95.5512 32.2695 95.8868 32.1401 96.2384 32.0898L95.8847 29.615C95.1585 29.7187 94.4654 29.986 93.8575 30.3966L95.2569 32.4683ZM81.0494 46.8024C83.39 44.9382 85.4479 42.7874 87.3586 40.5749L85.4665 38.9409C83.6072 41.0939 81.6634 43.1174 79.492 44.8468L81.0494 46.8024ZM78.4012 29.4985C78.1033 30.7895 77.7458 32.0652 77.3328 33.3274L79.7089 34.1048C80.144 32.7747 80.5219 31.4272 80.8372 30.0605L78.4012 29.4985ZM73.084 11.6374C73.084 12.391 73.0234 13.1434 72.9027 13.8873L75.3704 14.2876C75.5126 13.4114 75.584 12.5251 75.584 11.6374H73.084ZM78.9746 23.4248C79.2684 25.3484 78.8984 27.3434 78.4012 29.4985L80.8372 30.0605C81.3335 27.9092 81.8194 25.4924 81.446 23.0473L78.9746 23.4248ZM60.2275 4.41195C61.8942 3.8973 63.8485 3.45977 65.708 3.38948C67.5864 3.31848 69.2143 3.62753 70.3768 4.44126L71.8104 2.39317C70.0122 1.13445 67.7492 0.810535 65.6136 0.891263C63.4591 0.972702 61.2764 1.47159 59.4899 2.02325L60.2275 4.41195ZM71.1602 5.01343C72.5839 6.10668 73.084 8.2004 73.084 10.5553H75.584C75.584 8.06933 75.0985 4.88554 72.6828 3.03057L71.1602 5.01343ZM26.2135 34.331C27.2366 32.7626 27.7388 31.9928 28.9643 30.2787L26.9306 28.8247C25.6746 30.5815 25.15 31.3856 24.1196 32.9651L26.2135 34.331ZM31.388 23.0304C30.9944 23.4926 30.7934 23.73 29.4773 25.4163L31.4481 26.9545C32.7572 25.2772 32.9325 25.0727 33.2914 24.6512L31.388 23.0304ZM28.9643 30.2787C29.4203 29.6409 30.9657 27.5726 31.4481 26.9545L29.4773 25.4163C28.9734 26.062 27.407 28.1584 26.9306 28.8247L28.9643 30.2787ZM92.3515 34.7935C92.8503 34.2158 93.4234 33.7068 94.0558 33.2796L92.6564 31.2079C91.8412 31.7586 91.1024 32.4148 90.4594 33.1594L92.3515 34.7935ZM72.1556 18.5521C70.6915 23.5514 68.7237 28.3752 66.1558 32.8795L68.3276 34.1177C71.0036 29.4238 73.0431 24.4167 74.5548 19.2547L72.1556 18.5521Z" fill="#DD9B9B"/>
</svg>
