<svg width="95" height="49" viewBox="0 0 95 49" fill="none" xmlns="http://www.w3.org/2000/svg">
<path d="M8.66564 28.5983L9.31457 28.9743L8.66564 28.5983ZM25.8411 6.57272L25.3979 5.96768L25.8411 6.57272ZM36.89 22.3074L36.242 21.9297L36.89 22.3074ZM28.8301 33.6935L28.1641 33.3486C27.9848 33.6948 28.1007 34.1206 28.4307 34.3283C28.7606 34.5359 29.1947 34.4561 29.4292 34.1446L28.8301 33.6935ZM34.3569 22.7721L33.6839 22.4411L34.3569 22.7721ZM44.9499 10.9213L44.4172 11.4493L44.9499 10.9213ZM43.7985 23.4692L44.5264 23.6497L43.7985 23.4692ZM43.1076 28.1166L43.7334 27.7032L43.1076 28.1166ZM79.2619 24.8635L79.2439 25.6132L79.2619 24.8635ZM57.6837 19.4292L58.2637 18.9538L57.6837 19.4292ZM58.3414 20.5686L59.0432 20.3039L58.3414 20.5686ZM56.9657 18.5532L56.3857 19.0286L56.9657 18.5532ZM54.2302 18.1592L54.6525 18.779L54.2302 18.1592ZM46.046 26.4758L45.5762 25.8911L46.046 26.4758ZM49.5633 22.9714L48.9936 22.4836L49.5633 22.9714ZM45.0446 19.4803L44.3311 19.249L45.0446 19.4803ZM42.5341 8.13829L41.7936 8.0192L42.5341 8.13829ZM46.0127 13.4258L45.2711 13.538L46.0127 13.4258ZM15.7978 17.6724L16.4054 18.1121L15.7978 17.6724ZM20.2819 11.8399L19.7248 11.3377L20.2819 11.8399ZM19.0314 13.4451L18.448 12.9737L19.0314 13.4451ZM52.4269 19.6264L51.8572 19.1386L52.4269 19.6264ZM53.5391 18.6301L53.1168 18.0103L53.5391 18.6301ZM38.5821 19.3591L37.9292 18.9901L38.5821 19.3591ZM7.12639 36.6594L7.0989 37.0338L8.59488 37.1436L8.62237 36.7692L7.12639 36.6594ZM2.65854 46.2918C2.29126 46.5076 2.03214 46.6103 1.86322 46.6486C1.69408 46.6869 1.69227 46.6448 1.75361 46.6799C1.82343 46.7199 1.80828 46.7625 1.78191 46.6613C1.75358 46.5526 1.73698 46.3611 1.76298 46.0642C1.8698 44.8443 2.59353 42.7624 3.61672 40.3716C5.63741 35.6498 8.63321 30.1502 9.31457 28.9743L8.01671 28.2223C7.31643 29.4309 4.28966 34.9866 2.23769 39.7814C1.22454 42.1488 0.39941 44.4406 0.268696 45.9334C0.23531 46.3147 0.241288 46.6976 0.330362 47.0395C0.421399 47.3889 0.618478 47.7584 1.00824 47.9816C1.38952 48.1999 1.81534 48.1974 2.19442 48.1115C2.57372 48.0257 2.9834 47.8407 3.41835 47.5851L2.65854 46.2918ZM9.31457 28.9743C9.88236 27.9944 11.892 24.8503 13.7289 21.9991L12.4679 21.1867C10.643 24.0193 8.60719 27.2033 8.01671 28.2223L9.31457 28.9743ZM20.8389 12.3421C22.5177 10.4798 24.4888 8.49292 26.2843 7.17776L25.3979 5.96768C23.4754 7.37593 21.4216 9.45544 19.7248 11.3377L20.8389 12.3421ZM26.2843 7.17776C29.329 4.94745 32.0046 3.37725 34.5799 2.57501L34.1338 1.14289C31.3246 2.01798 28.4918 3.70132 25.3979 5.96768L26.2843 7.17776ZM40.3583 2.58675C40.5184 2.69979 40.6689 2.81034 40.8061 2.91661L41.7246 1.73077C41.5665 1.60829 41.3978 1.48445 41.2236 1.36142L40.3583 2.58675ZM41.8971 6.09033V6.72428H43.3971V6.09033H41.8971ZM41.7936 8.0192L41.346 10.8022L42.827 11.0404L43.2746 8.25739L41.7936 8.0192ZM37.9292 18.9901C37.4286 19.8757 36.8603 20.8691 36.242 21.9297L37.5379 22.6851C38.1599 21.6181 38.7316 20.6188 39.235 19.7281L37.9292 18.9901ZM36.242 21.9297C35.3845 23.4007 33.3941 26.2147 31.593 28.6922C30.6976 29.9239 29.8569 31.0617 29.2399 31.8917C28.9314 32.3067 28.679 32.6446 28.5038 32.8786C28.4162 32.9956 28.3479 33.0867 28.3015 33.1484C28.2783 33.1793 28.2606 33.2028 28.2488 33.2186C28.2428 33.2265 28.2384 33.2325 28.2354 33.2364C28.2339 33.2384 28.2328 33.2399 28.232 33.2409C28.2316 33.2414 28.2314 33.2418 28.2312 33.242C28.2311 33.2421 28.231 33.2422 28.231 33.2423C28.2309 33.2423 28.2309 33.2423 28.8301 33.6935C29.4292 34.1446 29.4292 34.1446 29.4293 34.1445C29.4294 34.1444 29.4294 34.1443 29.4295 34.1442C29.4297 34.1439 29.43 34.1435 29.4304 34.143C29.4312 34.1419 29.4324 34.1404 29.4339 34.1383C29.437 34.1343 29.4416 34.1282 29.4476 34.1201C29.4597 34.1041 29.4776 34.0803 29.501 34.0491C29.5477 33.9869 29.6165 33.8952 29.7045 33.7776C29.8807 33.5424 30.1341 33.2031 30.4437 32.7866C31.0628 31.9537 31.9069 30.8114 32.8063 29.5742C34.595 27.1138 36.6346 24.2347 37.5379 22.6851L36.242 21.9297ZM28.8301 33.6935C29.4961 34.0384 29.4961 34.0383 29.4961 34.0383C29.4961 34.0382 29.4962 34.0382 29.4962 34.0381C29.4963 34.0379 29.4965 34.0376 29.4967 34.0372C29.497 34.0365 29.4976 34.0354 29.4984 34.034C29.4999 34.031 29.5021 34.0267 29.5051 34.021C29.511 34.0095 29.5198 33.9925 29.5314 33.9701C29.5546 33.9252 29.5889 33.8588 29.6335 33.7726C29.7225 33.6001 29.8524 33.3483 30.016 33.0306C30.343 32.3951 30.8046 31.496 31.3428 30.4412C32.4189 28.3321 33.8025 25.598 35.0298 23.1032L33.6839 22.4411C32.4612 24.9264 31.0814 27.653 30.0067 29.7595C29.4694 30.8125 29.0087 31.7099 28.6823 32.3441C28.5191 32.6612 28.3895 32.9124 28.3007 33.0843C28.2563 33.1703 28.2221 33.2364 28.199 33.281C28.1875 33.3033 28.1788 33.3202 28.1729 33.3316C28.17 33.3372 28.1677 33.3415 28.1663 33.3443C28.1655 33.3458 28.165 33.3468 28.1646 33.3475C28.1644 33.3479 28.1643 33.3481 28.1642 33.3483C28.1642 33.3484 28.1641 33.3485 28.1641 33.3485C28.1641 33.3486 28.1641 33.3486 28.8301 33.6935ZM35.0298 23.1032C36.007 21.1169 38.0016 17.338 39.8186 14.5879L38.5671 13.7611C36.6995 16.5878 34.6727 20.431 33.6839 22.4411L35.0298 23.1032ZM39.8186 14.5879C40.7149 13.2313 41.4023 12.4652 41.8449 12.0481C42.0658 11.8398 42.2247 11.7196 42.3169 11.6565C42.363 11.6249 42.3925 11.6077 42.4048 11.6008C42.4109 11.5973 42.4127 11.5965 42.4102 11.5977C42.409 11.5984 42.4067 11.5995 42.4032 11.6011C42.4015 11.6019 42.3995 11.6029 42.3973 11.6039C42.3961 11.6044 42.395 11.605 42.3937 11.6055C42.3931 11.6058 42.3924 11.6061 42.3917 11.6064C42.3914 11.6065 42.3909 11.6068 42.3907 11.6068C42.3902 11.6071 42.3897 11.6073 42.0865 10.9213C41.7833 10.2354 41.7827 10.2356 41.7822 10.2358C41.782 10.2359 41.7815 10.2361 41.7811 10.2363C41.7804 10.2366 41.7796 10.237 41.7789 10.2373C41.7773 10.238 41.7758 10.2387 41.7741 10.2395C41.7708 10.241 41.7673 10.2426 41.7636 10.2444C41.756 10.2479 41.7476 10.252 41.7382 10.2567C41.7194 10.2661 41.6968 10.278 41.6706 10.2927C41.6182 10.3221 41.5511 10.363 41.4699 10.4185C41.3074 10.5297 41.0883 10.6999 40.8161 10.9564C40.2725 11.4688 39.513 12.3293 38.5671 13.7611L39.8186 14.5879ZM42.0865 10.9213C42.6004 11.4675 42.6002 11.4678 42.5999 11.468C42.5998 11.4681 42.5996 11.4683 42.5995 11.4685C42.5992 11.4687 42.5989 11.469 42.5986 11.4692C42.5981 11.4697 42.5977 11.4701 42.5973 11.4705C42.5966 11.4711 42.5962 11.4715 42.5962 11.4715C42.596 11.4716 42.5972 11.4706 42.5996 11.4684C42.6044 11.4642 42.614 11.4559 42.6281 11.4443C42.6565 11.4211 42.7017 11.3859 42.7607 11.3459C42.8818 11.2637 43.0453 11.1717 43.2292 11.1126C43.4109 11.0543 43.5946 11.0337 43.7752 11.0691C43.9486 11.1031 44.1682 11.198 44.4172 11.4493L45.4826 10.3934C45.0408 9.94755 44.5569 9.69387 44.0639 9.59717C43.5781 9.50188 43.1323 9.56839 42.7709 9.68436C42.4117 9.79962 42.1184 9.96898 41.9184 10.1047C41.817 10.1735 41.7356 10.2364 41.6776 10.284C41.6484 10.3078 41.6249 10.3281 41.6073 10.3436C41.5985 10.3513 41.5912 10.3579 41.5854 10.3632C41.5825 10.3659 41.5799 10.3682 41.5778 10.3702C41.5767 10.3712 41.5757 10.3721 41.5749 10.3729C41.5744 10.3733 41.574 10.3737 41.5736 10.3741C41.5734 10.3743 41.5731 10.3745 41.573 10.3746C41.5728 10.3749 41.5725 10.3751 42.0865 10.9213ZM44.4172 11.4493C44.8811 11.9174 45.1452 12.7053 45.2711 13.538L46.7543 13.3137C46.6148 12.3915 46.29 11.2081 45.4826 10.3934L44.4172 11.4493ZM44.3311 19.249C43.9039 20.5663 43.2111 22.7214 43.0705 23.2888L44.5264 23.6497C44.6505 23.1491 45.3183 21.0674 45.758 19.7117L44.3311 19.249ZM43.0705 23.2888C42.9842 23.637 42.6806 24.6884 42.4725 25.6753C42.367 26.1758 42.2765 26.6997 42.2453 27.1572C42.2297 27.3856 42.2272 27.6183 42.2518 27.8343C42.2749 28.0368 42.3293 28.2991 42.4819 28.53L43.7334 27.7032C43.7708 27.7599 43.7543 27.7711 43.7422 27.6645C43.7316 27.5715 43.7296 27.4372 43.7418 27.2595C43.766 26.9046 43.8401 26.4595 43.9402 25.9848C44.1434 25.0212 44.4155 24.0975 44.5264 23.6497L43.0705 23.2888ZM42.4819 28.53C42.667 28.8102 42.9486 28.9199 43.1796 28.9434C43.3869 28.9646 43.5781 28.9225 43.7169 28.8803C43.9998 28.7944 44.3077 28.6307 44.5956 28.4554C45.1863 28.0958 45.8884 27.5644 46.5157 27.0605L45.5762 25.8911C44.9599 26.3862 44.3197 26.8673 43.8155 27.1742C43.556 27.3322 43.3783 27.4155 43.2809 27.4451C43.2295 27.4607 43.2567 27.4435 43.3318 27.4512C43.4306 27.4613 43.6117 27.519 43.7334 27.7032L42.4819 28.53ZM50.1331 23.4591L52.9966 20.1141L51.8572 19.1386L48.9936 22.4836L50.1331 23.4591ZM53.9615 19.2499L54.6525 18.779L53.8078 17.5394L53.1168 18.0103L53.9615 19.2499ZM56.3857 19.0286L57.1036 19.9046L58.2637 18.9538L57.5458 18.0778L56.3857 19.0286ZM57.6397 20.8332L58.2953 22.572L59.6989 22.0428L59.0432 20.3039L57.6397 20.8332ZM64.8318 26.6301C68.8493 26.1242 74.8074 25.5068 79.2439 25.6132L79.2799 24.1137C74.7214 24.0043 68.6659 24.6354 64.6443 25.1419L64.8318 26.6301ZM79.2439 25.6132C82.096 25.6817 85.7477 26.0838 88.7038 26.4724C90.1781 26.6663 91.4725 26.8558 92.3982 26.9969C92.8609 27.0674 93.2313 27.1257 93.4857 27.1664C93.6129 27.1868 93.711 27.2027 93.7773 27.2135C93.8104 27.2189 93.8355 27.223 93.8522 27.2258C93.8606 27.2272 93.8669 27.2282 93.871 27.2289C93.8731 27.2292 93.8746 27.2295 93.8756 27.2297C93.8761 27.2297 93.8765 27.2298 93.8767 27.2298C93.8769 27.2299 93.8769 27.2299 93.877 27.2299C93.877 27.2299 93.877 27.2299 94 26.49C94.123 25.7502 94.1229 25.7502 94.1228 25.7502C94.1227 25.7501 94.1226 25.7501 94.1224 25.7501C94.1221 25.75 94.1217 25.75 94.1211 25.7499C94.1199 25.7497 94.1182 25.7494 94.1159 25.749C94.1114 25.7483 94.1048 25.7472 94.0961 25.7457C94.0786 25.7429 94.0527 25.7386 94.0189 25.7331C93.9512 25.722 93.8514 25.7059 93.7226 25.6853C93.4649 25.644 93.0909 25.5851 92.6241 25.514C91.6908 25.3718 90.386 25.1807 88.8993 24.9852C85.9335 24.5953 82.2161 24.1841 79.2799 24.1137L79.2439 25.6132ZM58.285 22.5427C59.1977 25.3056 61.9658 26.9911 64.8318 26.6301L64.6443 25.1419C62.4687 25.4159 60.3904 24.1342 59.7093 22.0721L58.285 22.5427ZM57.1036 19.9046C57.3316 20.1829 57.5127 20.4965 57.6397 20.8332L59.0432 20.3039C58.8586 19.8144 58.5953 19.3584 58.2637 18.9538L57.1036 19.9046ZM55.1977 18.5671C55.6472 18.5023 56.0978 18.6774 56.3857 19.0286L57.5458 18.0778C56.925 17.3203 55.9531 16.9427 54.9837 17.0825L55.1977 18.5671ZM7.0989 37.0338C6.82173 40.8095 5.63536 44.543 2.65854 46.2918L3.41835 47.5851C7.06684 45.4417 8.30949 41.0313 8.59488 37.1436L7.0989 37.0338ZM54.6525 18.779C54.8157 18.6678 55.0022 18.5953 55.1977 18.5671L54.9837 17.0825C54.5621 17.1432 54.1599 17.2995 53.8078 17.5394L54.6525 18.779ZM46.5157 27.0605C47.8595 25.9809 49.039 24.7371 50.1331 23.4591L48.9936 22.4836C47.9301 23.7258 46.8187 24.8929 45.5762 25.8911L46.5157 27.0605ZM44.943 17.0371C44.7725 17.7827 44.5677 18.5196 44.3311 19.249L45.758 19.7117C46.0076 18.9419 46.2244 18.1622 46.4052 17.3715L44.943 17.0371ZM41.8971 6.72428C41.8971 7.15799 41.8625 7.591 41.7936 8.0192L43.2746 8.25739C43.3561 7.75042 43.3971 7.23776 43.3971 6.72428H41.8971ZM45.2711 13.538C45.4384 14.6443 45.2276 15.7924 44.943 17.0371L46.4052 17.3715C46.6894 16.129 46.9685 14.7301 46.7543 13.3137L45.2711 13.538ZM34.5799 2.57501C35.5314 2.27861 36.6482 2.0275 37.7093 1.98736C38.7818 1.94679 39.7043 2.12495 40.3583 2.58675L41.2236 1.36142C40.1866 0.629222 38.8802 0.441989 37.6526 0.488433C36.4135 0.535309 35.1586 0.823634 34.1338 1.14289L34.5799 2.57501ZM40.8061 2.91661C41.6123 3.54111 41.8971 4.73478 41.8971 6.09033H43.3971C43.3971 4.65852 43.122 2.81319 41.7246 1.73077L40.8061 2.91661ZM13.7289 21.9991C14.4652 20.8563 14.8293 20.2904 16.4054 18.1121L15.1902 17.2328C13.5979 19.4333 13.2186 20.0215 12.4679 21.1867L13.7289 21.9991ZM19.7248 11.3377C19.6903 11.376 19.6635 11.4056 19.6469 11.4248C19.6429 11.4293 19.619 11.4563 19.5953 11.4888C19.5887 11.4978 19.5447 11.5564 19.509 11.6407C19.4908 11.6835 19.3324 12.0586 19.6181 12.4088C19.7361 12.5536 19.8747 12.6144 19.9376 12.6378C20.0004 12.6613 20.0536 12.6708 20.0564 12.6713C20.1048 12.6808 19.9974 12.6647 19.9021 12.6232C19.7667 12.5642 19.6047 12.4435 19.5143 12.2344C19.437 12.0558 19.4505 11.8984 19.4612 11.8275C19.4808 11.6971 19.532 11.6061 19.5334 11.6035C19.5454 11.5805 19.5543 11.5673 19.5523 11.5703C19.5159 11.6265 19.3087 11.9085 18.448 12.9737L19.6148 13.9164C20.4525 12.8795 20.7212 12.5246 20.8108 12.3865C20.8246 12.3653 20.8437 12.3348 20.8622 12.2993C20.8701 12.2842 20.9241 12.1858 20.9444 12.0507C20.9555 11.9775 20.9687 11.8185 20.891 11.6389C20.8001 11.4287 20.6374 11.3073 20.501 11.248C20.4049 11.2061 20.2966 11.1899 20.3442 11.1992C20.3466 11.1997 20.3993 11.2091 20.4618 11.2324C20.5244 11.2558 20.6627 11.3163 20.7806 11.4609C21.0659 11.8107 20.9074 12.1851 20.8898 12.2267C20.8546 12.3097 20.8117 12.3665 20.8069 12.3731C20.7869 12.4005 20.7697 12.4195 20.7772 12.4108C20.7835 12.4036 20.7988 12.3866 20.8389 12.3421L19.7248 11.3377ZM16.4054 18.1121C16.8661 17.4754 19.1208 14.5277 19.6148 13.9164L18.448 12.9737C17.9374 13.6057 15.6665 16.5745 15.1902 17.2328L16.4054 18.1121ZM52.9966 20.1141C53.2787 19.7847 53.6031 19.4941 53.9615 19.2499L53.1168 18.0103C52.6489 18.3291 52.2254 18.7086 51.8572 19.1386L52.9966 20.1141ZM41.3662 10.7122C40.5281 13.5991 39.4011 16.3858 37.9292 18.9901L39.235 19.7281C40.771 17.0105 41.9405 14.1143 42.8067 11.1304L41.3662 10.7122Z" fill="#443C3D"/>
</svg>
